<svg xmlns="http://www.w3.org/2000/svg" xmlns:xlink="http://www.w3.org/1999/xlink" version="1.1" x="0px" y="0px" viewBox="0 0 1000 1250" style="enable-background:new 0 0 1000 1000;" xml:space="preserve"><g><path d="M873,704.7L857.5,546c-1.4-14.7-8-28.5-18.4-38.9l-75.7-75.7c-15.9-15.9-41.8-15.9-57.7,0l-11.8,11.8l-23.3-23.3   c-10.5-10.5-24.6-16.4-39.5-16.4c-14.9,0-28.9,5.8-39.5,16.4c-10.5,10.5-16.4,24.6-16.4,39.5c0,3.8,0.4,7.4,1.1,11   c-13.4,0.7-26.8,6.2-37.2,16.6c-13,13-18.4,30.5-16.3,47.1c-14.5-0.1-29,5.3-40,16.3c0,0,0,0,0,0c-14.1,14.1-19,33.8-14.9,51.9   c-13.8,0.7-26.8,6.3-36.6,16.2c-21.8,21.8-21.8,57.2,0,79l69.2,69.2l65.7,65.7c25.8,25.8,60,39.7,95.4,39.7   c8.1,0,16.3-0.7,24.5-2.2L812.3,996c2.6,2.6,6.1,4,9.6,4c3.5,0,6.9-1.3,9.6-4l156.8-156.8c5.3-5.3,5.3-13.9,0-19.1L873,704.7z    M610.7,439c5.4-5.4,12.6-8.4,20.3-8.4c7.7,0,14.9,3,20.3,8.4l23.3,23.3L634,503l-23.3-23.3C599.5,468.5,599.5,450.2,610.7,439z    M556.8,545.3c-4.9-4.9-7.6-11.7-7.4-18.9c0.2-7.5,3.3-14.7,8.9-20.2c5.5-5.5,12.7-8.7,20.2-8.9c7.2-0.1,14,2.4,18.9,7.4l17.5,17.5   c-1.9,2.4-3.1,5.4-3.1,8.5c0,3.6,1.4,7,4,9.6l19.9,19.9c10.1,10.1,22.7,16.7,36.4,19.3l7.7,7.7l1.5,1.5c4.9,4.9,7.6,11.7,7.4,18.9   c-0.2,7.5-3.3,14.7-8.9,20.2c-5.5,5.5-12.7,8.7-20.2,8.9c-7.3,0.2-14-2.4-18.9-7.4l-1.5-1.5l-77.4-77.4L556.8,545.3z M502,569.5   c11.2-11.2,29.5-11.2,40.7,0l77.4,77.4c11.2,11.2,11.2,29.4,0,40.7c-11.2,11.2-29.4,11.2-40.7,0l-69.2-69.2c0,0,0,0,0,0l-8.3-8.3   C490.8,599,490.8,580.7,502,569.5L502,569.5z M450.5,637.6C450.5,637.6,450.5,637.6,450.5,637.6c5.4-5.4,12.6-8.4,20.3-8.4   c7.7,0,14.9,3,20.3,8.4l69.2,69.2c11.2,11.2,11.2,29.4,0,40.7c-11.2,11.2-29.5,11.2-40.7,0l-69.2-69.2   C439.3,667.1,439.3,648.8,450.5,637.6z M821.9,967.3L700.1,845.5c-0.1-0.1-0.1-0.1-0.2-0.2c-0.4-0.4-0.8-0.7-1.2-1   c-0.3-0.2-0.6-0.5-0.9-0.7c-0.4-0.3-0.8-0.4-1.2-0.7c-0.4-0.2-0.7-0.4-1.1-0.5c-0.4-0.2-0.9-0.3-1.3-0.4c-0.4-0.1-0.8-0.2-1.2-0.3   c-0.4-0.1-0.9-0.1-1.3-0.1c-0.4,0-0.9-0.1-1.3-0.1c-0.4,0-0.8,0.1-1.2,0.1c-0.5,0.1-1,0.1-1.5,0.2c-0.1,0-0.2,0-0.3,0   c-37,8.9-75.1-1.9-102-28.7l-32-32c9.5-2.4,18.6-7.2,26-14.6c12-12,17.3-28,16.1-43.7c1.4,0.1,2.8,0.2,4.2,0.2   c14.3,0,28.6-5.4,39.5-16.3c11.8-11.8,17.2-27.7,16.1-43.2c1.2,0.1,2.4,0.2,3.6,0.2c8.8,0,17.7-2.1,25.8-6.3   c1.7,28.3,13.3,56.2,34.9,77.8c2.6,2.6,6.1,4,9.6,4s6.9-1.3,9.6-4c5.3-5.3,5.3-13.9,0-19.1c-36.2-36.2-36.2-95.2,0-131.4   c6.9-6.9,14.8-12.7,23.5-17.1c0.9-0.4,1.7-1,2.5-1.6c0,0,0.1-0.1,0.1-0.1c0.6-0.5,1.3-1.1,1.8-1.7c0.1-0.1,0.2-0.3,0.3-0.4   c0.4-0.6,0.9-1.1,1.2-1.8c0.1-0.1,0.1-0.3,0.2-0.4c0.3-0.6,0.6-1.3,0.9-2c0-0.1,0.1-0.3,0.1-0.4c0.2-0.7,0.4-1.4,0.5-2.2   c0-0.3,0-0.5,0-0.8c0-0.6,0.1-1.2,0.1-1.8l-2.2-33.8c0-0.3-0.1-0.5-0.1-0.8c-0.1-0.5-0.1-0.9-0.2-1.4c-0.1-0.4-0.2-0.8-0.4-1.3   c-0.1-0.4-0.3-0.8-0.5-1.2c-0.2-0.4-0.4-0.8-0.6-1.2c-0.2-0.4-0.4-0.7-0.7-1.1c-0.3-0.4-0.6-0.7-0.9-1.1c-0.2-0.2-0.3-0.5-0.5-0.7   c-0.1-0.1-0.2-0.2-0.4-0.3c-0.3-0.3-0.6-0.5-0.9-0.8c-0.4-0.3-0.8-0.6-1.2-0.9c-0.3-0.2-0.5-0.3-0.8-0.4c-0.5-0.3-1.1-0.5-1.6-0.7   c-0.2-0.1-0.5-0.1-0.7-0.2c-0.6-0.2-1.2-0.3-1.8-0.4c-0.3,0-0.6-0.1-0.9-0.1c-0.6,0-1.1-0.1-1.7-0.1c-0.1,0-0.3,0-0.4,0   c-0.3,0-0.5,0.1-0.8,0.1c-0.5,0.1-0.9,0.1-1.4,0.2c-0.4,0.1-0.8,0.2-1.2,0.4c-0.4,0.1-0.8,0.3-1.2,0.5c-0.4,0.2-0.8,0.4-1.2,0.6   c-0.4,0.2-0.7,0.4-1.1,0.7c-0.4,0.3-0.8,0.6-1.1,0.9c-0.2,0.2-0.4,0.3-0.6,0.5l-29,29c-8.1,8.1-18.9,12.6-30.3,12.6   s-22.2-4.5-30.3-12.6l-10.3-10.3l80.2-80.2c2.6-2.6,6-4,9.7-4c3.7,0,7.1,1.4,9.7,4l75.7,75.7c6,6,9.8,14,10.6,22.4l16,163.6   c0,0.2,0.1,0.4,0.1,0.6c0.1,0.4,0.1,0.8,0.2,1.2c0.1,0.4,0.2,0.9,0.4,1.3c0.1,0.4,0.3,0.7,0.4,1.1c0.2,0.4,0.4,0.9,0.7,1.3   c0.2,0.3,0.4,0.6,0.6,0.9c0.3,0.4,0.7,0.8,1,1.2c0.2,0.2,0.3,0.4,0.4,0.5l109.2,109.2L821.9,967.3z"/><path d="M450.8,518.3c11.1-11.1,16.5-25.9,16.3-40.5c2.5,0.3,5.1,0.6,7.6,0.6c14.3,0,28.6-5.4,39.5-16.3   c10.3-10.3,15.7-23.7,16.2-37.3c3.7,0.8,7.6,1.2,11.5,1.2c14.9,0,28.9-5.8,39.5-16.4c21.8-21.8,21.8-57.2,0-79L558,307.3l11.8-11.8   c15.9-15.9,15.9-41.8,0-57.7l-75.7-75.7c-10.4-10.4-24.2-17-38.9-18.4l-158.7-15.5L181.1,12.8c-2.5-2.5-6-4-9.6-4s-7,1.4-9.6,4   L5.2,169.7c-5.3,5.3-5.3,13.9,0,19.1l126.2,126.2c-8,43.8,5.7,88.1,37.5,119.8l114.2,114.2l20.7,20.7   c10.9,10.9,25.2,16.3,39.5,16.3c14.3,0,28.6-5.4,39.5-16.3c10.2-10.2,15.5-23.3,16.2-36.6c4.1,0.9,8.2,1.4,12.4,1.4   C425.6,534.6,439.9,529.2,450.8,518.3z M391,499.2l-8.3-8.3c-5.3-5.3-13.9-5.3-19.2,0c-2.6,2.6-4,6.1-4,9.6c0,2.6,0.7,5.2,2.2,7.5   c0.5,0.8,1.1,1.5,1.7,2.1c11.2,11.2,11.2,29.4,0,40.7c-11.2,11.2-29.5,11.2-40.7,0L302.2,530L188,415.8   c-26.9-26.9-37.6-65-28.7-102c0-0.1,0-0.2,0-0.3c0.1-0.5,0.2-1,0.2-1.5c0-0.4,0.1-0.8,0.1-1.2c0-0.4,0-0.9-0.1-1.3   c0-0.4,0-0.9-0.1-1.3c-0.1-0.4-0.2-0.8-0.3-1.2c-0.1-0.4-0.2-0.9-0.4-1.3c-0.2-0.4-0.4-0.8-0.6-1.1c-0.2-0.4-0.4-0.8-0.6-1.2   c-0.2-0.3-0.4-0.6-0.7-0.9c-0.3-0.4-0.6-0.8-1-1.2c-0.1-0.1-0.1-0.1-0.2-0.2L33.9,179.3L171.6,41.6l109.2,109.2   c0.1,0.1,0.3,0.2,0.5,0.4c0.4,0.3,0.7,0.6,1.1,0.9c0.3,0.2,0.7,0.5,1,0.7c0.4,0.2,0.8,0.4,1.2,0.6c0.4,0.2,0.8,0.4,1.2,0.5   c0.4,0.1,0.8,0.3,1.2,0.4c0.5,0.1,0.9,0.2,1.4,0.3c0.2,0,0.4,0.1,0.6,0.1l163.6,16c8.4,0.8,16.4,4.6,22.4,10.6l75.7,75.7   c5.4,5.4,5.4,14.1,0,19.4l-11.8,11.8L493,242.3c-5.3-5.3-13.9-5.3-19.1,0c-5.3,5.3-5.3,13.9,0,19.1l55.5,55.5c0,0,0,0,0,0   c0,0,0,0,0,0l32.9,32.9c5.4,5.4,8.4,12.6,8.4,20.3c0,7.7-3,14.9-8.4,20.3c-5.4,5.4-12.6,8.4-20.3,8.4c-7.7,0-14.9-3-20.3-8.4   l-7.3-7.3c0,0,0,0,0,0c-1.3-1.3-2.8-2.3-4.5-3c-3.8-1.6-8.2-1.2-11.8,0.9c-0.2,0.1-0.5,0.2-0.7,0.4c-0.1,0-0.1,0.1-0.2,0.1   c-0.7,0.5-1.3,1-1.9,1.6c-5.3,5.3-5.3,13.9,0,19.2c11.2,11.2,11.2,29.4,0,40.7c-11.2,11.2-29.4,11.2-40.6,0l-3.6-3.6c0,0,0,0,0,0   c0,0,0,0,0,0c-0.2-0.2-0.4-0.3-0.6-0.5c-5.3-4.8-13.5-4.7-18.6,0.5c0,0,0,0,0,0c0,0,0,0,0,0c-0.4,0.4-0.7,0.8-1,1.2   c-0.2,0.3-0.5,0.6-0.7,0.9c-0.4,0.7-0.8,1.3-1.1,2.1c0,0.1-0.1,0.2-0.2,0.3c-0.3,0.7-0.5,1.4-0.6,2.1c0,0.1-0.1,0.3-0.1,0.4   c-0.1,0.5-0.1,1.1-0.2,1.7c0,0.3-0.1,0.6-0.1,0.9c0,0.3,0.1,0.6,0.1,0.9c0.2,3.2,1.5,6.3,3.9,8.7l0,0c11.2,11.2,11.2,29.4,0,40.7   C420.4,510.4,402.2,510.4,391,499.2z"/><path d="M517.1,152.2c7.5,0,13.5-6.1,13.5-13.5V15.9c0-7.5-6.1-13.5-13.5-13.5c-7.5,0-13.5,6.1-13.5,13.5v122.8   C503.5,146.2,509.6,152.2,517.1,152.2z"/><path d="M517.1,816c-7.5,0-13.5,6.1-13.5,13.5v122.8c0,7.5,6.1,13.5,13.5,13.5c7.5,0,13.5-6.1,13.5-13.5V829.6   C530.6,822.1,524.5,816,517.1,816z"/><path d="M185.1,484.1c0-7.5-6.1-13.5-13.5-13.5H48.8c-7.5,0-13.5,6.1-13.5,13.5c0,7.5,6.1,13.5,13.5,13.5h122.8   C179.1,497.7,185.1,491.6,185.1,484.1z"/><path d="M985.3,470.6H862.5c-7.5,0-13.5,6.1-13.5,13.5c0,7.5,6.1,13.5,13.5,13.5h122.8c7.5,0,13.5-6.1,13.5-13.5   C998.8,476.7,992.8,470.6,985.3,470.6z"/><path d="M263.2,718.8l-86.8,86.8c-5.3,5.3-5.3,13.9,0,19.1c2.6,2.6,6.1,4,9.6,4c3.5,0,6.9-1.3,9.6-4l86.8-86.8   c5.3-5.3,5.3-13.9,0-19.1C277.1,713.5,268.5,713.5,263.2,718.8z"/><path d="M761.3,253.4c3.5,0,6.9-1.3,9.6-4l86.8-86.8c5.3-5.3,5.3-13.9,0-19.1c-5.3-5.3-13.9-5.3-19.1,0l-86.8,86.8   c-5.3,5.3-5.3,13.9,0,19.1C754.4,252.1,757.9,253.4,761.3,253.4z"/><path d="M210.4,611.1c-2.9-6.9-10.8-10.2-17.7-7.3l-113.4,47c-6.9,2.9-10.2,10.8-7.3,17.7c2.2,5.2,7.2,8.4,12.5,8.4   c1.7,0,3.5-0.3,5.2-1l113.4-47C210,626,213.3,618.1,210.4,611.1z"/><path d="M823.7,357.1c2.2,5.2,7.2,8.4,12.5,8.4c1.7,0,3.5-0.3,5.2-1l113.4-47c6.9-2.9,10.2-10.8,7.3-17.7   c-2.9-6.9-10.8-10.2-17.7-7.3l-113.4,47C824.1,342.3,820.8,350.2,823.7,357.1z"/><path d="M390,790.8c-6.9-2.9-14.8,0.4-17.7,7.3l-47,113.4c-2.9,6.9,0.4,14.8,7.3,17.7c1.7,0.7,3.4,1,5.2,1c5.3,0,10.4-3.1,12.5-8.4   l47-113.4C400.2,801.6,396.9,793.6,390,790.8z"/><path d="M644.1,177.5c1.7,0.7,3.4,1,5.2,1c5.3,0,10.4-3.1,12.5-8.4l47-113.4c2.9-6.9-0.4-14.8-7.3-17.7c-6.9-2.9-14.8,0.4-17.7,7.3   l-47,113.4C633.9,166.7,637.2,174.6,644.1,177.5z"/></g><text x="0" y="1015" fill="#000000" font-size="5px" font-weight="bold" font-family="'Helvetica Neue', Helvetica, Arial-Unicode, Arial, Sans-serif">Created by Nestor Arellano</text><text x="0" y="1020" fill="#000000" font-size="5px" font-weight="bold" font-family="'Helvetica Neue', Helvetica, Arial-Unicode, Arial, Sans-serif">from the Noun Project</text></svg>